<svg width="46" height="46" viewBox="0 0 46 46" fill="none" xmlns="http://www.w3.org/2000/svg">
<!-- Center Staff -->
<line x1="23" y1="8" x2="23" y2="38" stroke="#2E7D32" stroke-width="1.5" stroke-linecap="round"/>

<!-- Left Snake -->
<path d="M23 12 Q18 14 18 18 Q18 22 23 24 Q28 26 28 30" stroke="#2E7D32" stroke-width="2" fill="none" stroke-linecap="round" stroke-linejoin="round"/>
<!-- Left Snake Head -->
<circle cx="18" cy="18" r="1.8" fill="#2E7D32"/>

<!-- Right Snake -->
<path d="M23 12 Q28 14 28 18 Q28 22 23 24 Q18 26 18 30" stroke="#2E7D32" stroke-width="2" fill="none" stroke-linecap="round" stroke-linejoin="round"/>
<!-- Right Snake Head -->
<circle cx="28" cy="18" r="1.8" fill="#2E7D32"/>

<!-- Left Wing -->
<path d="M20 10 Q15 8 12 6 Q15 8 18 10 Q16 9 17 10" fill="#2E7D32"/>
<path d="M20 9 L12 5 M20 10 L13 7 M20 11 L14 8" stroke="#2E7D32" stroke-width="1" stroke-linecap="round"/>

<!-- Right Wing -->
<path d="M26 10 Q31 8 34 6 Q31 8 28 10 Q30 9 29 10" fill="#2E7D32"/>
<path d="M26 9 L34 5 M26 10 L33 7 M26 11 L32 8" stroke="#2E7D32" stroke-width="1" stroke-linecap="round"/>

<!-- Top Circle -->
<circle cx="23" cy="8" r="2" fill="#2E7D32" stroke="#2E7D32" stroke-width="1"/>

<!-- Bottom Circle (Base) -->
<circle cx="23" cy="38" r="2" fill="#2E7D32" stroke="#2E7D32" stroke-width="1"/>
</svg>
